<?xml version="1.0"?>
<svg xmlns="http://www.w3.org/2000/svg" version="1.1" viewBox="0 0 10240 7680" x="0px" y="0px" width="1024px" height="768px">
  <g id="BACKGROUND">
    <path d="M3172.060194847272,76.3L2657.2231679109564,584.7878371299686L2656.227249278694,583.7919184977067L2330.5110954214197,907.4708360716858L2318.6956731029427,919.1405287314822L2318.7316586768766,919.1765143054168L1808.6525918968453,1426.06525738837L2028.0227954360475,2331.216833065146L2041.881818181818,2400.2818181818184L1918.973399086776,2524.58328892326L1919.011291181184,2524.6006859225795L1494.8,2942.7380411907557L1494.818588574615,3076.750820830318L1494.81429890355,3076.750820830318L1494.81429890355,7621.946986172745L8482.926778879246,7621.946986172745L8482.926778879246,3094.9168628454977L8482.760792440537,3094.9168628454977L8482.771874090788,2971.3847028780137L7968.489167982097,2472.1861484393453L7968.487023146566,2472.1871016995815L7883.131818181818,2392.7818181818184L7901.274788694428,2355.0983851443452L8280.878505415652,1604.789636011218L7293.275757985787,662.9045345869148L6678.216881964363,76.3z" id="POCHE" fill="#F6F6F6" stroke-width="10" stroke="#D4D4D4"/>
    <path d="M8244.6,7383.75L8244.61281375658,10046.11281375658L10141.01281375658,10046.11281375658L10142.56281375658,10046.11281375658L10520.382236842106,10361.532236842106L12487.282236842106,10361.532236842106L12852.66281375658,10046.11281375658L12854.21281375658,10046.11281375658L14756.06281375658,10046.11281375658L14756.082361640216,7383.75z" id="STAGE" transform="rotate(-180, 8244.6, 7383.75)" fill="#262626" stroke="#F6F6F6" stroke-width="25"/>
    <text font-family="averta,arial,'arial bold'" text-align="left" font-size="953.2602366709684" x="3355.1000000000004" y="6330.65" width="3320.2" height="1102.45" fill="#ffffff" stroke-width="10">
      <tspan text-anchor="start" x="3355.1000000000004">STAGE</tspan>
    </text>
    <text font-family="averta,arial,'arial bold'" text-align="left" font-size="357.472588751613" x="1839.7597934866103" y="4596.531729695857" width="808.25" height="413.4" fill="#262626" stroke-width="10">
      <tspan text-anchor="start" x="1839.7597934866103">EXIT</tspan>
    </text>
    <text font-family="averta,arial,'arial bold'" text-align="left" font-size="357.4725887516137" x="7321.10979348661" y="4596.531729695858" width="808.25" height="413.4" fill="#262626" stroke-width="10">
      <tspan text-anchor="start" x="7321.10979348661">EXIT</tspan>
    </text>
    <g id="FLOOR">
      <g id="TABLES">
        <path d="M7547.400000000001,5184.8L6962.45,5184.84L6962.45,5647.17L7547.400000000001,5647.13L7547.400000000001,5184.8z" id="TBL14" fill="#ffffff" stroke="#DDDDDD" stroke-width="25"/>
        <path d="M6662.45,4721.7L6662.45,5183.88L7247.400000000001,5183.84L7247.400000000001,4721.7z" id="TBL15" fill="#ffffff" stroke="#DDDDDD" stroke-width="25"/>
        <path d="M7248.4,4721.71L7248.4,5183.84L7833.5599999999995,5183.8L7833.5599999999995,4721.71z" id="TBL1" fill="#ffffff" stroke="#DDDDDD" stroke-width="25"/>
        <path d="M5280.1,3968.73L5280.1,4379.93L5772.99,4379.94L5772.99,3968.74L5280.1,3968.73z" id="TBL2" fill="#ffffff" stroke="#DDDDDD" stroke-width="25"/>
        <path d="M4729.3,3968.71L4729.3,4379.91L5279.099999999999,4379.93L5279.099999999999,3968.73L4729.3,3968.71z" id="TBL3" fill="#ffffff" stroke="#DDDDDD" stroke-width="25"/>
        <path d="M4215.599999999999,3968.7L4215.599999999999,4379.9L4728.3,4379.91L4728.3,3968.71L4215.599999999999,3968.7z" id="TBL4" fill="#ffffff" stroke="#DDDDDD" stroke-width="25"/>
        <path d="M5541.299999999999,3572.3199999999997L5541.299999999999,3967.4700000000003L6042.79,3967.4900000000002L6042.59,3572.3399999999997L5541.299999999999,3572.3199999999997z" id="TBL5" fill="#ffffff" stroke="#DDDDDD" stroke-width="25"/>
        <path d="M4994.599999999999,3572.2999999999997L4994.599999999999,3967.4500000000003L5540.3,3967.4700000000003L5540.3,3572.3199999999997L4994.599999999999,3572.2999999999997z" id="TBL6" fill="#ffffff" stroke="#DDDDDD" stroke-width="25"/>
        <path d="M4457.9,3572.3199999999997L3931.0499999999997,3572.3399999999997L3931.0499999999997,3967.5400000000004L4457.9,3967.4900000000002L4457.9,3572.3199999999997z" id="TBL8" fill="#ffffff" stroke="#DDDDDD" stroke-width="25"/>
        <path d="M4993.51,3572.2999999999997L4458.9,3572.3199999999997L4458.9,3967.4900000000002L4993.51,3967.4500000000003L4993.51,3572.2999999999997z" id="TBL7" fill="#ffffff" stroke="#DDDDDD" stroke-width="25"/>
        <path d="M5279.7,3181.7799999999997L5279.7,3570.74L5773.24,3570.7599999999998L5773.04,3181.79L5279.7,3181.7799999999997z" id="TBL9" fill="#ffffff" stroke="#DDDDDD" stroke-width="25"/>
        <path d="M4729.9,3181.7599999999998L4729.9,3570.7200000000003L5278.7,3570.74L5278.7,3181.7799999999997L4729.9,3181.7599999999998z" id="TBL10" fill="#ffffff" stroke="#DDDDDD" stroke-width="25"/>
        <path d="M4215.650000000001,3181.75L4215.650000000001,3570.7000000000003L4728.900000000001,3570.7200000000003L4728.900000000001,3181.7599999999998L4215.650000000001,3181.75z" id="TBL11" fill="#ffffff" stroke="#DDDDDD" stroke-width="25"/>
        <path d="M5459.2,2790.25L5459.2237446231775,3180.678947368421L5921.7705871008,3180.678947368421L5921.810003175275,2790.27z" id="TBL12" fill="#ffffff" stroke="#DDDDDD" stroke-width="25"/>
        <path d="M2722.2000000000003,4721.7L2722.2000000000003,5184.2L3296.84,5184.2L3296.84,4721.7z" id="TBL13" fill="#ffffff" stroke="#DDDDDD" stroke-width="25"/>
        <path d="M2446.35,5185.2L2446.35,5647.25L3021.15,5647.25L3021.15,5185.2z" id="TBL16" fill="#ffffff" stroke="#DDDDDD" stroke-width="25"/>
        <path d="M2146.3999999999996,4721.7L2146.3999999999996,5184.2L2721.2,5184.2L2721.2,4721.7z" id="TBL17" fill="#ffffff" stroke="#DDDDDD" stroke-width="25"/>
        <path d="M2146.3900000000003,4721.7L2146.3900000000003,5184.19L2446.35,5184.19L2446.35,5647.25L3021.15,5647.25L3021.15,5184.19L3296.84,5184.19L3296.84,4721.7L2146.3900000000003,4721.7z" id="TABLE TRAY" fill="#ffffff" stroke="#DDDDDD" stroke-width="25"/>
        <path d="M5459.2,2790.25L5459.22,3181.7700000000004L5279.700000000001,3181.7700000000004L4215.65,3181.75L4215.65,3572.31L3931.05,3572.33L3931.05,3967.54L4215.59,3967.5099999999998L4215.59,4379.9L5772.99,4379.9400000000005L5772.99,3967.4700000000003L6042.789000000001,3967.4900000000002L6042.581,3572.33L5773.241,3572.31L5773.029,3180.67L5921.77,3180.67L5921.81,2790.27L5459.2,2790.25z" id="TABLE TRAY" fill="#ffffff" stroke="#DDDDDD" stroke-width="25"/>
        <path d="M6662.45,4721.7L6662.45,5183.88L6962.45,5183.86L6962.45,5647.17L7547.4,5647.129999999999L7547.4,5183.8099999999995L7833.5599999999995,5183.8L7833.5599999999995,4721.71L7248.400000000001,4721.7L6662.45,4721.7z" id="TABLE TRAY" fill="#ffffff" stroke="#DDDDDD" stroke-width="25"/>
        <g id="GRAY TABLES">
          <path d="M6975.551404928218,4874.2C7031.194894599,4874.2 7076.302809856437,4919.308419014462 7076.302809856437,4974.951908685243C7076.302809856437,5030.595398356025 7031.194894599,5075.702809856437 6975.551404928218,5075.702809856437C6919.907915257438,5075.702809856437 6874.8,5030.595398356025 6874.8,4974.951908685243C6874.8,4919.308419014462 6919.907915257438,4874.2 6975.551404928218,4874.2z" fill="#DFDFDF" stroke-width="25"/>
          <path d="M4468.401404928218,4062.05C4524.044894598999,4062.05 4569.152809856437,4107.158419014462 4569.152809856437,4162.801908685244C4569.152809856437,4218.445398356025 4524.044894598999,4263.552809856438 4468.401404928218,4263.552809856438C4412.757915257437,4263.552809856438 4367.65,4218.445398356025 4367.65,4162.801908685244C4367.65,4107.158419014462 4412.757915257437,4062.05 4468.401404928218,4062.05z" fill="#DFDFDF" stroke-width="25"/>
          <path d="M4458.401404928218,3278.05C4514.044894598999,3278.05 4559.152809856437,3323.158419014462 4559.152809856437,3378.801908685244C4559.152809856437,3434.445398356025 4514.044894598999,3479.552809856438 4458.401404928218,3479.552809856438C4402.757915257437,3479.552809856438 4357.65,3434.445398356025 4357.65,3378.801908685244C4357.65,3323.158419014462 4402.757915257437,3278.05 4458.401404928218,3278.05z" fill="#DFDFDF" stroke-width="25"/>
          <path d="M4996.401404928219,3278.1C5052.044894598999,3278.1 5097.152809856436,3323.208419014462 5097.152809856436,3378.8519086852434C5097.152809856436,3434.495398356025 5052.044894598999,3479.6028098564366 4996.401404928219,3479.6028098564366C4940.757915257437,3479.6028098564366 4895.65,3434.495398356025 4895.65,3378.8519086852434C4895.65,3323.208419014462 4940.757915257437,3278.1 4996.401404928219,3278.1z" fill="#DFDFDF" stroke-width="25"/>
          <path d="M5540.951404928219,3278.05C5596.594894598999,3278.05 5641.702809856436,3323.158419014462 5641.702809856436,3378.801908685244C5641.702809856436,3434.445398356025 5596.594894598999,3479.552809856438 5540.951404928219,3479.552809856438C5485.307915257437,3479.552809856438 5440.2,3434.445398356025 5440.2,3378.801908685244C5440.2,3323.158419014462 5485.307915257437,3278.05 5540.951404928219,3278.05z" fill="#DFDFDF" stroke-width="25"/>
          <path d="M2442.151404928218,4874.2C2497.7948945989997,4874.2 2542.902809856437,4919.308419014462 2542.902809856437,4974.951908685243C2542.902809856437,5030.595398356025 2497.7948945989997,5075.702809856437 2442.151404928218,5075.702809856437C2386.5079152574376,5075.702809856437 2341.4,5030.595398356025 2341.4,4974.951908685243C2341.4,4919.308419014462 2386.5079152574376,4874.2 2442.151404928218,4874.2z" fill="#DFDFDF" stroke-width="25"/>
          <path d="M7538.101404928219,4874.2C7593.744894599,4874.2 7638.852809856437,4919.308419014462 7638.852809856437,4974.951908685243C7638.852809856437,5030.595398356025 7593.744894599,5075.702809856437 7538.101404928219,5075.702809856437C7482.457915257438,5075.702809856437 7437.35,5030.595398356025 7437.35,4974.951908685243C7437.35,4919.308419014462 7482.457915257438,4874.2 7538.101404928219,4874.2z" fill="#DFDFDF" stroke-width="25"/>
          <path d="M5520.951404928219,4062.05C5576.594894598999,4062.05 5621.702809856436,4107.158419014462 5621.702809856436,4162.801908685244C5621.702809856436,4218.445398356025 5576.594894598999,4263.552809856438 5520.951404928219,4263.552809856438C5465.307915257437,4263.552809856438 5420.2,4218.445398356025 5420.2,4162.801908685244C5420.2,4107.158419014462 5465.307915257437,4062.05 5520.951404928219,4062.05z" fill="#DFDFDF" stroke-width="25"/>
          <path d="M5691.951404928219,2882.05C5747.594894598999,2882.05 5792.702809856436,2927.158419014462 5792.702809856436,2982.801908685244C5792.702809856436,3038.445398356025 5747.594894598999,3083.552809856438 5691.951404928219,3083.552809856438C5636.307915257437,3083.552809856438 5591.2,3038.445398356025 5591.2,2982.801908685244C5591.2,2927.158419014462 5636.307915257437,2882.05 5691.951404928219,2882.05z" fill="#DFDFDF" stroke-width="25"/>
          <path d="M5259.951404928219,3668.05C5315.594894598999,3668.05 5360.702809856436,3713.158419014462 5360.702809856436,3768.801908685244C5360.702809856436,3824.445398356025 5315.594894598999,3869.552809856438 5259.951404928219,3869.552809856438C5204.307915257437,3869.552809856438 5159.2,3824.445398356025 5159.2,3768.801908685244C5159.2,3713.158419014462 5204.307915257437,3668.05 5259.951404928219,3668.05z" fill="#DFDFDF" stroke-width="25"/>
          <path d="M5802.951404928219,3668.05C5858.594894598999,3668.05 5903.702809856436,3713.158419014462 5903.702809856436,3768.801908685244C5903.702809856436,3824.445398356025 5858.594894598999,3869.552809856438 5802.951404928219,3869.552809856438C5747.307915257437,3869.552809856438 5702.2,3824.445398356025 5702.2,3768.801908685244C5702.2,3713.158419014462 5747.307915257437,3668.05 5802.951404928219,3668.05z" fill="#DFDFDF" stroke-width="25"/>
          <path d="M4729.401404928219,3668.1C4785.044894598999,3668.1 4830.152809856436,3713.208419014462 4830.152809856436,3768.8519086852434C4830.152809856436,3824.495398356025 4785.044894598999,3869.6028098564366 4729.401404928219,3869.6028098564366C4673.757915257437,3869.6028098564366 4628.65,3824.495398356025 4628.65,3768.8519086852434C4628.65,3713.208419014462 4673.757915257437,3668.1 4729.401404928219,3668.1z" fill="#DFDFDF" stroke-width="25"/>
          <path d="M4191.401404928219,3668.05C4247.044894598999,3668.05 4292.152809856438,3713.158419014462 4292.152809856438,3768.801908685244C4292.152809856438,3824.445398356025 4247.044894598999,3869.552809856438 4191.401404928219,3869.552809856438C4135.757915257438,3869.552809856438 4090.65,3824.445398356025 4090.65,3768.801908685244C4090.65,3713.158419014462 4135.757915257438,3668.05 4191.401404928219,3668.05z" fill="#DFDFDF" stroke-width="25"/>
          <path d="M3004.701404928219,4874.2C3060.3448945989994,4874.2 3105.452809856436,4919.308419014462 3105.452809856436,4974.951908685243C3105.452809856436,5030.595398356025 3060.3448945989994,5075.702809856437 3004.701404928219,5075.702809856437C2949.0579152574373,5075.702809856437 2903.95,5030.595398356025 2903.95,4974.951908685243C2903.95,4919.308419014462 2949.0579152574373,4874.2 3004.701404928219,4874.2z" fill="#DFDFDF" stroke-width="25"/>
          <path d="M7253.551404928219,5319.75C7309.194894599,5319.75 7354.302809856436,5364.858419014462 7354.302809856436,5420.5019086852435C7354.302809856436,5476.145398356025 7309.194894599,5521.252809856437 7253.551404928219,5521.252809856437C7197.907915257438,5521.252809856437 7152.8,5476.145398356025 7152.8,5420.5019086852435C7152.8,5364.858419014462 7197.907915257438,5319.75 7253.551404928219,5319.75z" fill="#DFDFDF" stroke-width="25"/>
          <path d="M4996.401404928219,4062.1C5052.044894598999,4062.1 5097.152809856436,4107.2084190144615 5097.152809856436,4162.851908685243C5097.152809856436,4218.495398356024 5052.044894598999,4263.602809856437 4996.401404928219,4263.602809856437C4940.757915257437,4263.602809856437 4895.65,4218.495398356024 4895.65,4162.851908685243C4895.65,4107.2084190144615 4940.757915257437,4062.1 4996.401404928219,4062.1z" fill="#DFDFDF" stroke-width="25"/>
          <path d="M2720.151404928219,5319.75C2775.7948945989997,5319.75 2820.9028098564363,5364.858419014462 2820.9028098564363,5420.5019086852435C2820.9028098564363,5476.145398356025 2775.7948945989997,5521.252809856437 2720.151404928219,5521.252809856437C2664.5079152574376,5521.252809856437 2619.4,5476.145398356025 2619.4,5420.5019086852435C2619.4,5364.858419014462 2664.5079152574376,5319.75 2720.151404928219,5319.75z" fill="#DFDFDF" stroke-width="25"/>
        </g>
      </g>
    </g>
    <g id="RISER">
      <path d="M7919.679550112116,2757L6308.365064335033,3497.8451389760476L6307.65,3584.560124610235L6308.438227058197,3584.198243192889L6308.519232581011,4169.647643090717L8244.352458200581,4169.647643090717L8244.45090391732,3072.2461392053287z" id="RISE4" fill="#ffffff" stroke="#DDDDDD" stroke-width="25"/>
      <path d="M6308.123411220658,1192.65L4967.2,1192.6688268896744L4967.218826889673,2790.3925623150085L5645.767575296567,2790.3329835502173L5889.582236842105,2790.2322368421055L5951.682236842105,2790.2322368421055L6242.932236842105,3111.5322368421052L7618.877327525976,2464.960599165792z" id="RISE3" fill="#ffffff" stroke="#DDDDDD" stroke-width="25"/>
      <path d="M2020.2165750340387,2759.55L1733.15,3042.5063552085735L1733.3042874035086,4157.124215598357L3597.285522684003,4157.124215598357L3597.328321834426,3497.0157122795194L3597.3280835193664,3484.6823121799403z" id="RISE1" fill="#ffffff" stroke="#DDDDDD" stroke-width="25"/>
      <path d="M3609.765961510051,1192.65L2465.622750212555,2320.411553287834L2331.9,2452.2196803150364L3726.587356434159,3093.72713393901L4038.5291622216237,2789.4754987100864L4273.0410977748825,2790.412938252567L4274.699385856856,2789.5350774748777L4967.072341473195,2790.392562315009L4967.072341473195,1192.6688268896744z" id="RISE2" fill="#ffffff" stroke="#DDDDDD" stroke-width="25"/>
    </g>
    <g id="LOGE">
      <path d="M3269.886269281589,314.7L2656.75,920.2745324541968L3267.028633407109,1530.5531658613058L3609.7852672551135,1192.7040348692124L4967.299219634792,1192.4331898044682L4967.299219634792,314.7z" id="LOGE2" fill="#ffffff" stroke="#DDDDDD" stroke-width="25"/>
      <path d="M2655.705662737622,920.35L2071.9,1500.5035626530012L2231.8445345754803,2160.4575402532705C2319.7413245880825,2199.0251386961527 2396.0473042254703,2256.2293322385403 2465.5720288542425,2320.4861024844095L3265.8445243625274,1530.4888616249073z" id="LOGE1" fill="#ffffff" stroke="#DDDDDD" stroke-width="25"/>
      <path d="M4967.2,314.7L4967.2,1192.4330706469384L6308.104584330984,1192.6606615284436L6661.808577894448,1535.9906814088065L7248.339592285609,949.4596670176447L6582.790215411141,314.7z" id="LOGE3" fill="#ffffff" stroke="#DDDDDD" stroke-width="25"/>
      <path d="M7248.398841858174,949.45L6661.9,1535.948841858174L7503.250940454153,2352.623568668334C7566.165639444319,2284.4683215270697 7639.998027925076,2226.542867458111 7721.9714971420635,2181.62381521582L7988.337170436784,1655.1360200696085z" id="LOGE4" fill="#ffffff" stroke="#DDDDDD" stroke-width="25"/>
    </g>
  </g>
</svg>
