<?xml version="1.0" encoding="utf-8"?>
<svg viewBox="149.4 7.6 698.8 754.5" xmlns="http://www.w3.org/2000/svg">
  <defs>
    <style type="text/css">
	.st0{fill:#F6F6F6;stroke:#D4D4D4;stroke-miterlimit:10;}
	.st1{fill:#262626;stroke:#F6F6F6;stroke-width:2.5;stroke-miterlimit:10;}
	.st2{fill:#FFFFFF;}
	.st3{font-family:'ArialMT';}
	.st4{font-size:95.326px;}
	.st5{fill:#262626;}
	.st6{font-size:35.7473px;}
	.st7{fill:#FFFFFF;stroke:#DDDDDD;stroke-width:2.5;stroke-miterlimit:10;}
	.st8{fill:#DFDFDF;}
	.st9{fill:#3366CC;}
  
  .accessible {
    fill: #D592F0;
  }

  .seat:hover{
      fill:#bad455;
  }

  .taken {
    fill: #ABABAB;
  }
  .taken:hover {
    fill: #9C9C9C;
  }

  .season {
    fill: #ABABAB;
  }
  .season:hover {
    fill: #9C9C9C;
  }

  .active {
      fill:#bad455;
  }
  .active:hover {
      fill:#90A63C;
  }

</style>
  </defs>
  <g id="BACKGROUND">
    <path id="POCHE" class="st0" d="M317.2,7.6l-51.5,50.8l-0.1-0.1L233,90.7l-1.2,1.2l0,0l-51,50.7l21.9,90.5l1.4,6.9l-12.3,12.4l0,0 l-42.4,41.8v13.4l0,0v454.5h698.8V309.5l0,0v-12.4l-51.4-49.9l0,0l-8.5-7.9l1.8-3.8l38-75l-98.8-94.2L667.8,7.6H317.2z"/>
    <path id="STAGE" class="st1" d="M824.5,738.4V472.2H634.8h-0.2l-37.8-31.5H400.2l-36.5,31.5h-0.2H173.3v266.2H824.5z"/>
    <text transform="matrix(1 0 0 1 335.5103 633.0645)" class="st2 st3 st4" style="white-space: pre;">STAGE</text>
    <text transform="matrix(1 0 0 1 183.9761 459.6533)" class="st5 st3 st6" style="white-space: pre;">EXIT</text>
    <text transform="matrix(1 0 0 1 732.1113 459.6533)" class="st5 st3 st6" style="white-space: pre;">EXIT</text>
    <g id="FLOOR">
      <g id="TABLES">
        <path id="TBL2" class="st7" d="M528,396.9V438h49.3v-41.1H528z"/>
        <path id="TBL3" class="st7" d="M472.9,396.9V438h55v-41.1H472.9z"/>
        <path id="TBL4" class="st7" d="M421.6,396.9V438h51.3v-41.1H421.6z"/>
        <path id="TBL5" class="st7" d="M554.1,357.2v39.5h50.1v-39.5H554.1z"/>
        <path id="TBL6" class="st7" d="M499.5,357.2v39.5h54.6v-39.5H499.5z"/>
        <path id="TBL8" class="st7" d="M445.8,357.2h-52.7v39.5h52.7V357.2z"/>
        <path id="TBL7" class="st7" d="M499.4,357.2h-53.5v39.5h53.5V357.2z"/>
        <path id="TBL9" class="st7" d="M528,318.2v38.9h49.4v-38.9H528z"/>
        <path id="TBL10" class="st7" d="M473,318.2v38.9h54.9v-38.9H473z"/>
        <path id="TBL11" class="st7" d="M421.6,318.2v38.9h51.3v-38.9H421.6z"/>
        <path id="TABLE_TRAY_00000050658157006236996870000013505022435162172844_" class="st7" d="M 577.3 318.1 L 545.9 318.2 L 527.9 318.2 L 421.5 318.2 L 421.5 357.3 L 393 357.3 L 393 396.8 L 421.5 396.8 L 421.5 438 L 577.2 438 L 577.2 396.8 L 604.2 396.8 L 604.2 357.3 L 577.3 357.3 L 577.3 318.1 Z"/>
        <g id="GRAY_TABLES"/>
      </g>
    </g>
    <g id="RISER">
      <path id="RISE4" class="st7" d="M792,275.7l-161.1,74.1l-0.1,8.7h0.1V417h193.6V307.3L792,275.7z"/>
      <path id="RISE3" class="st7" d="M630.8,119.3H496.7v159.8h67.9H589h6.2l29.1,32.1l137.6-64.7L630.8,119.3z"/>
      <path id="RISE1" class="st7" d="M202,276l-28.7,28.3v111.5h186.4v-66v-1.2L202,276z"/>
      <path id="RISE2" class="st7" d="M361,119.3L246.6,232l-13.4,13.2l139.5,64.2l31.2-30.4l23.5,0.1l0.2-0.1l69.2,0.1V119.3H361z"/>
    </g>
    <g id="LOGE">
      <path id="LOGE2" class="st7" d="M327,31.5L265.7,92l61,61l34.3-33.8h135.8V31.5H327z"/>
      <path id="LOGE1" class="st7" d="M265.6,92l-58.4,58l16,66c8.8,3.9,16.4,9.6,23.4,16l80-79L265.6,92z"/>
      <path id="LOGE3" class="st7" d="M496.7,31.5v87.8h134.1l35.4,34.3l58.7-58.7l-66.6-63.5L496.7,31.5L496.7,31.5z"/>
      <path id="LOGE4" class="st7" d="M724.8,94.9l-58.6,58.6l84.1,81.7c6.3-6.8,13.7-12.6,21.9-17.1l26.6-52.6L724.8,94.9z"/>
    </g>
    <text class="st5 st3 st6" style="white-space: pre; font-size: 35.7px;" x="448.341" y="389.521">ORCH</text>
  </g>
  <g id="ALLSEATS">
    <g id="RISER1">
      <g id="A">
        <circle class="st9 seat" cx="338" cy="402" r="5.5" id="RISE1-A-1"/>
        <circle class="st9 seat" cx="338" cy="387.7" r="5.5" id="RISE1-A-2"/>
      </g>
      <g id="B">
        <circle class="st9 seat" cx="314.6" cy="402" r="5.5" id="RISE1-B-1"/>
        <circle class="st9 seat" cx="314.6" cy="387.7" r="5.5" id="RISE1-B-2"/>
        <circle class="st9 seat" cx="314.6" cy="373.4" r="5.5" id="RISE1-B-3"/>
      </g>
      <g id="C">
        <circle class="st9 seat" cx="291.2" cy="402" r="5.5" id="RISE1-C-1"/>
        <circle class="st9 seat" cx="291.2" cy="387.7" r="5.5" id="RISE1-C-2"/>
        <circle class="st9 seat" cx="291.2" cy="373.4" r="5.5" id="RISE1-C-3"/>
        <circle class="st9 seat" cx="291.2" cy="359.1" r="5.5" id="RISE1-C-4"/>
      </g>
      <g id="D">
        <circle class="st9 seat" cx="267.8" cy="402" r="5.5" id="RISE1-D-1"/>
        <circle class="st9 seat" cx="267.8" cy="387.7" r="5.5" id="RISE1-D-2"/>
        <circle class="st9 seat" cx="267.8" cy="373.4" r="5.5" id="RISE1-D-3"/>
        <circle class="st9 seat" cx="267.8" cy="359.1" r="5.5" id="RISE1-D-4"/>
        <circle class="st9 seat" cx="267.8" cy="344.8" r="5.5" id="RISE1-D-5"/>
      </g>
      <g id="E">
        <circle class="st9 seat" cx="244.4" cy="402" r="5.5" id="RISE1-E-1"/>
        <circle class="st9 seat" cx="244.4" cy="387.7" r="5.5" id="RISE1-E-2"/>
        <circle class="st9 seat" cx="244.4" cy="373.4" r="5.5" id="RISE1-E-3"/>
        <circle class="st9 seat" cx="244.4" cy="359.1" r="5.5" id="RISE1-E-4"/>
        <circle class="st9 seat" cx="244.4" cy="344.8" r="5.5" id="RISE1-E-5"/>
        <circle class="st9 seat" cx="244.4" cy="330.5" r="5.5" id="RISE1-E-6"/>
      </g>
      <g id="F">
        <circle class="st9 seat" cx="221" cy="402" r="5.5" id="RISE1-F-1"/>
        <circle class="st9 seat" cx="221" cy="387.7" r="5.5" id="RISE1-F-2"/>
        <circle class="st9 seat" cx="221" cy="373.4" r="5.5" id="RISE1-F-3"/>
        <circle class="st9 seat" cx="221" cy="359.1" r="5.5" id="RISE1-F-4"/>
        <circle class="st9 seat" cx="221" cy="344.8" r="5.5" id="RISE1-F-5"/>
        <circle class="st9 seat" cx="221" cy="330.5" r="5.5" id="RISE1-F-6"/>
        <circle class="st9 seat" cx="221" cy="316.2" r="5.5" id="RISE1-F-7"/>
      </g>
      <g id="G">
        <circle class="st9 seat" cx="197.6" cy="402" r="5.5" id="RISE1-G-1"/>
        <circle class="st9 seat" cx="197.6" cy="387.7" r="5.5" id="RISE1-G-2"/>
        <circle class="st9 seat" cx="197.6" cy="373.4" r="5.5" id="RISE1-G-3"/>
        <circle class="st9 seat" cx="197.6" cy="359.1" r="5.5" id="RISE1-G-4"/>
        <circle class="st9 seat" cx="197.6" cy="344.8" r="5.5" id="RISE1-G-5"/>
        <circle class="st9 seat" cx="197.6" cy="330.5" r="5.5" id="RISE1-G-6"/>
        <circle class="st9 seat" cx="197.6" cy="316.2" r="5.5" id="RISE1-G-7"/>
        <circle class="st9 seat" cx="197.6" cy="301.9" r="5.5" id="RISE1-G-8"/>
      </g>
    </g>
    <g id="RISER2">
      <g id="A">
        <circle class="st9 seat season accessible" cx="411.8" cy="261.2" r="5.5" id="RISE2-A-1"/>
        <circle class="st9 seat season accessible" cx="426.1" cy="261.2" r="5.5" id="RISE2-A-2"/>
        <circle class="st9 seat season accessible" cx="440.4" cy="261.2" r="5.5" id="RISE2-A-3"/>
        <circle class="st9 seat season accessible" cx="454.7" cy="261.2" r="5.5" id="RISE2-A-4"/>
        <circle class="st9 seat season accessible" cx="469.7" cy="261.2" r="5.5" id="RISE2-A-5"/>
      </g>
      <g id="B">
        <circle class="st9 seat season" cx="363" cy="281.2" r="5.5" id="RISE2-B-1"/>
        <circle class="st9 seat season" cx="373.1" cy="268.7" r="5.5" id="RISE2-B-2"/>
        <circle class="st9 seat season" cx="383.5" cy="258.9" r="5.5" id="RISE2-B-3"/>
        <circle class="st9 seat season" cx="393.8" cy="249.1" r="5.5" id="RISE2-B-4"/>
        <circle class="st9 seat season" cx="404.2" cy="239.2" r="5.5" id="RISE2-B-5"/>
        <circle class="st9 seat season" cx="426.1" cy="239.2" r="5.5" id="RISE2-B-6"/>
        <circle class="st9 seat season" cx="440.4" cy="239.2" r="5.5" id="RISE2-B-7"/>
        <circle class="st9 seat season" cx="454.7" cy="239.2" r="5.5" id="RISE2-B-8"/>
        <circle class="st9 seat season" cx="469.7" cy="239.2" r="5.5" id="RISE2-B-9"/>
      </g>
      <g id="C">
        <circle class="st9 seat season" cx="340.9" cy="269" r="5.5" id="RISE2-C-1"/>
        <circle class="st9 seat season" cx="351" cy="256.5" r="5.5" id="RISE2-C-2"/>
        <circle class="st9 seat season" cx="361.4" cy="246.7" r="5.5" id="RISE2-C-3"/>
        <circle class="st9 seat season" cx="371.8" cy="236.9" r="5.5" id="RISE2-C-4"/>
        <circle class="st9 seat season" cx="382.2" cy="227" r="5.5" id="RISE2-C-5"/>
        <circle class="st9 seat season" cx="392.5" cy="217.2" r="5.5" id="RISE2-C-6"/>
        <circle class="st9 seat season" cx="411.8" cy="217.2" r="5.5" id="RISE2-C-7"/>
        <circle class="st9 seat season" cx="425.7" cy="217.2" r="5.5" id="RISE2-C-8"/>
        <circle class="st9 seat season" cx="440" cy="217.2" r="5.5" id="RISE2-C-9"/>
        <circle class="st9 seat season" cx="454.3" cy="217.2" r="5.5" id="RISE2-C-10"/>
        <circle class="st9 seat season" cx="469.2" cy="217.2" r="5.5" id="RISE2-C-11"/>
      </g>
      <g id="D">
        <circle class="st9 seat season" cx="317.1" cy="254.2" r="5.5" id="RISE2-D-1"/>
        <circle class="st9 seat season" cx="327.2" cy="241.7" r="5.5" id="RISE2-D-2"/>
        <circle class="st9 seat season" cx="337.6" cy="231.9" r="5.5" id="RISE2-D-3"/>
        <circle class="st9 seat season" cx="348" cy="222" r="5.5" id="RISE2-D-4"/>
        <circle class="st9 seat season" cx="358.4" cy="212.2" r="5.5" id="RISE2-D-5"/>
        <circle class="st9 seat season" cx="368.8" cy="202.4" r="5.5" id="RISE2-D-6"/>
        <circle class="st9 seat season" cx="382.8" cy="195.2" r="5.5" id="RISE2-D-7"/>
        <circle class="st9 seat season" cx="397.1" cy="195.2" r="5.5" id="RISE2-D-8"/>
        <circle class="st9 seat season" cx="411.4" cy="195.2" r="5.5" id="RISE2-D-9"/>
        <circle class="st9 seat season" cx="425.7" cy="195.2" r="5.5" id="RISE2-D-10"/>
        <circle class="st9 seat season" cx="440" cy="195.2" r="5.5" id="RISE2-D-10"/>
        <circle class="st9 seat season" cx="454.3" cy="195.2" r="5.5" id="RISE2-D-11"/>
        <circle class="st9 seat season" cx="469.2" cy="195.2" r="5.5" id="RISE2-D-12"/>
      </g>
      <g id="E">
        <circle class="st9 seat season" cx="299.2" cy="241" r="5.5" id="RISE2-E-1"/>
        <circle class="st9 seat season" cx="309.2" cy="228.5" r="5.5" id="RISE2-E-2"/>
        <circle class="st9 seat season" cx="319.6" cy="218.7" r="5.5" id="RISE2-E-3"/>
        <circle class="st9 seat season" cx="330" cy="208.9" r="5.5" id="RISE2-E-4"/>
        <circle class="st9 seat season" cx="340.4" cy="199" r="5.5" id="RISE2-E-5"/>
        <circle class="st9 seat season" cx="350.8" cy="189.2" r="5.5" id="RISE2-E-6"/>
        <circle class="st9 seat season" cx="366.3" cy="177" r="5.5" id="RISE2-E-7"/>
        <circle class="st9 seat season" cx="382.8" cy="173.2" r="5.5" id="RISE2-E-8"/>
        <circle class="st9 seat season" cx="397.1" cy="173.2" r="5.5" id="RISE2-E-9"/>
        <circle class="st9 seat season" cx="411.4" cy="173.2" r="5.5" id="RISE2-E-10"/>
        <circle class="st9 seat season" cx="425.7" cy="173.2" r="5.5" id="RISE2-E-11"/>
        <circle class="st9 seat season" cx="440" cy="173.2" r="5.5" id="RISE2-E-12"/>
        <circle class="st9 seat season" cx="454.3" cy="173.2" r="5.5" id="RISE2-E-13"/>
        <circle class="st9 seat season" cx="469.2" cy="173.2" r="5.5" id="RISE2-E-14"/>
      </g>
      <g id="F">
        <circle class="st9 seat season" cx="280.5" cy="227.9" r="5.5" id="RISE2-F-1"/>
        <circle class="st9 seat season" cx="290.6" cy="215.5" r="5.5" id="RISE2-F-2"/>
        <circle class="st9 seat season" cx="301" cy="205.6" r="5.5" id="RISE2-F-3"/>
        <circle class="st9 seat season" cx="311.3" cy="195.8" r="5.5" id="RISE2-F-4"/>
        <circle class="st9 seat season" cx="321.7" cy="186" r="5.5" id="RISE2-F-5"/>
        <circle class="st9 seat season" cx="335.4" cy="174.6" r="5.5" id="RISE2-F-6"/>
        <circle class="st9 seat season" cx="345.8" cy="164.7" r="5.5" id="RISE2-F-7"/>
        <circle class="st9 seat season" cx="356.2" cy="154.9" r="5.5" id="RISE2-F-8"/>
        <circle class="st9 seat season" cx="382.8" cy="151.2" r="5.5" id="RISE2-F-9"/>
        <circle class="st9 seat season" cx="397.1" cy="151.2" r="5.5" id="RISE2-F-10"/>
        <circle class="st9 seat season" cx="411.4" cy="151.2" r="5.5" id="RISE2-F-11"/>
        <circle class="st9 seat season" cx="425.7" cy="151.2" r="5.5" id="RISE2-F-12"/>
        <circle class="st9 seat season" cx="440" cy="151.2" r="5.5" id="RISE2-F-13"/>
        <circle class="st9 seat season" cx="454.3" cy="151.2" r="5.5" id="RISE2-F-14"/>
        <circle class="st9 seat season" cx="469.2" cy="151.2" r="5.5" id="RISE2-F-15"/>
      </g>
    </g>
    <g id="RISER3">
      <g id="A">
        <circle class="st9 seat accessible" cx="523.2" cy="260.9" r="5.5" id="RISE3-A-1"/>
        <circle class="st9 seat accessible" cx="538.2" cy="260.9" r="5.5" id="RISE3-A-2"/>
        <circle class="st9 seat accessible" cx="552.5" cy="260.9" r="5.5" id="RISE3-A-3"/>
        <circle class="st9 seat accessible" cx="566.8" cy="260.9" r="5.5" id="RISE3-A-4"/>
        <circle class="st9 seat accessible" cx="581.1" cy="260.9" r="5.5" id="RISE3-A-5"/>
      </g>
      <g id="B">
        <circle class="st9 seat" cx="523.2" cy="238.9" r="5.5" id="RISE3-B-1"/>
        <circle class="st9 seat" cx="538.2" cy="238.9" r="5.5" id="RISE3-B-2"/>
        <circle class="st9 seat" cx="552.5" cy="238.9" r="5.5" id="RISE3-B-3"/>
        <circle class="st9 seat" cx="566.8" cy="238.9" r="5.5" id="RISE3-B-4"/>
        <circle class="st9 seat" cx="588.7" cy="238.9" r="5.5" id="RISE3-B-5"/>
        <circle class="st9 seat" cx="599.1" cy="248.7" r="5.5" id="RISE3-B-6"/>
        <circle class="st9 seat" cx="609.4" cy="258.6" r="5.5" id="RISE3-B-7"/>
        <circle class="st9 seat" cx="619.8" cy="268.4" r="5.5" id="RISE3-B-8"/>
        <circle class="st9 seat" cx="629.9" cy="280.9" r="5.5" id="RISE3-B-9"/>
      </g>
      <g id="C">
        <circle class="st9 seat" cx="523.7" cy="216.9" r="5.5" id="RISE3-C-1"/>
        <circle class="st9 seat" cx="538.6" cy="216.9" r="5.5" id="RISE3-C-2"/>
        <circle class="st9 seat" cx="552.9" cy="216.9" r="5.5" id="RISE3-C-3"/>
        <circle class="st9 seat" cx="567.2" cy="216.9" r="5.5" id="RISE3-C-4"/>
        <circle class="st9 seat" cx="581.1" cy="216.9" r="5.5" id="RISE3-C-5"/>
        <circle class="st9 seat" cx="600.4" cy="216.9" r="5.5" id="RISE3-C-6"/>
        <circle class="st9 seat" cx="610.7" cy="226.7" r="5.5" id="RISE3-C-7"/>
        <circle class="st9 seat" cx="621.1" cy="236.5" r="5.5" id="RISE3-C-8"/>
        <circle class="st9 seat" cx="631.5" cy="246.4" r="5.5" id="RISE3-C-9"/>
        <circle class="st9 seat" cx="641.9" cy="256.2" r="5.5" id="RISE3-C-10"/>
        <circle class="st9 seat" cx="652" cy="268.7" r="5.5" id="RISE3-C-11"/>
      </g>
      <g id="D">
        <circle class="st9 seat" cx="523.7" cy="194.9" r="5.5" id="RISE3-D-1"/>
        <circle class="st9 seat" cx="538.6" cy="194.9" r="5.5" id="RISE3-D-2"/>
        <circle class="st9 seat" cx="552.9" cy="194.9" r="5.5" id="RISE3-D-3"/>
        <circle class="st9 seat" cx="567.2" cy="194.9" r="5.5" id="RISE3-D-4"/>
        <circle class="st9 seat" cx="581.5" cy="194.9" r="5.5" id="RISE3-D-5"/>
        <circle class="st9 seat" cx="595.8" cy="194.9" r="5.5" id="RISE3-D-6"/>
        <circle class="st9 seat" cx="610.1" cy="194.9" r="5.5" id="RISE3-D-7"/>
        <circle class="st9 seat" cx="624.1" cy="202.1" r="5.5" id="RISE3-D-8"/>
        <circle class="st9 seat" cx="634.5" cy="211.9" r="5.5" id="RISE3-D-9"/>
        <circle class="st9 seat" cx="644.9" cy="221.7" r="5.5" id="RISE3-D-10"/>
        <circle class="st9 seat" cx="655.3" cy="231.5" r="5.5" id="RISE3-D-11"/>
        <circle class="st9 seat" cx="665.7" cy="241.4" r="5.5" id="RISE3-D-12"/>
        <circle class="st9 seat" cx="675.8" cy="253.9" r="5.5" id="RISE3-D-13"/>
      </g>
      <g id="E">
        <circle class="st9 seat" cx="523.7" cy="172.9" r="5.5" id="RISE3-E-1"/>
        <circle class="st9 seat" cx="538.6" cy="172.9" r="5.5" id="RISE3-E-2"/>
        <circle class="st9 seat" cx="552.9" cy="172.9" r="5.5" id="RISE3-E-3"/>
        <circle class="st9 seat" cx="567.2" cy="172.9" r="5.5" id="RISE3-E-4"/>
        <circle class="st9 seat" cx="581.5" cy="172.9" r="5.5" id="RISE3-E-5"/>
        <circle class="st9 seat" cx="595.8" cy="172.9" r="5.5" id="RISE3-E-6"/>
        <circle class="st9 seat" cx="610.1" cy="172.9" r="5.5" id="RISE3-E-7"/>
        <circle class="st9 seat" cx="626.6" cy="176.7" r="5.5" id="RISE3-E-8"/>
        <circle class="st9 seat" cx="642.1" cy="188.9" r="5.5" id="RISE3-E-9"/>
        <circle class="st9 seat" cx="652.5" cy="198.7" r="5.5" id="RISE3-E-10"/>
        <circle class="st9 seat" cx="662.9" cy="208.5" r="5.5" id="RISE3-E-11"/>
        <circle class="st9 seat" cx="673.3" cy="218.4" r="5.5" id="RISE3-E-12"/>
        <circle class="st9 seat" cx="683.7" cy="228.2" r="5.5" id="RISE3-E-13"/>
        <circle class="st9 seat" cx="693.7" cy="240.7" r="5.5" id="RISE3-E-14"/>
      </g>
      <g id="F">
        <circle class="st9 seat" cx="523.7" cy="150.9" r="5.5" id="RISE3-F-1"/>
        <circle class="st9 seat" cx="538.6" cy="150.9" r="5.5" id="RISE3-F-2"/>
        <circle class="st9 seat" cx="552.9" cy="150.9" r="5.5" id="RISE3-F-3"/>
        <circle class="st9 seat" cx="567.2" cy="150.9" r="5.5" id="RISE3-F-4"/>
        <circle class="st9 seat" cx="581.5" cy="150.9" r="5.5" id="RISE3-F-5"/>
        <circle class="st9 seat" cx="595.8" cy="150.9" r="5.5" id="RISE3-F-6"/>
        <circle class="st9 seat" cx="610.1" cy="150.9" r="5.5" id="RISE3-F-7"/>
        <circle class="st9 seat" cx="636.7" cy="154.6" r="5.5" id="RISE3-F-8"/>
        <circle class="st9 seat" cx="647.1" cy="164.4" r="5.5" id="RISE3-F-9"/>
        <circle class="st9 seat" cx="657.5" cy="174.2" r="5.5" id="RISE3-F-10"/>
        <circle class="st9 seat" cx="671.2" cy="185.7" r="5.5" id="RISE3-F-11"/>
        <circle class="st9 seat" cx="681.6" cy="195.5" r="5.5" id="RISE3-F-12"/>
        <circle class="st9 seat" cx="692" cy="205.3" r="5.5" id="RISE3-F-13"/>
        <circle class="st9 seat" cx="702.3" cy="215.1" r="5.5" id="RISE3-F-14"/>
        <circle class="st9 seat" cx="712.4" cy="227.6" r="5.5" id="RISE3-F-15"/>
      </g>
    </g>
    <g id="RISER4">
      <g id="A">
        <circle class="st9 seat" cx="651.9" cy="387.7" r="5.5" id="RISE4-A-1"/>
        <circle class="st9 seat" cx="651.9" cy="402" r="5.5" id="RISE4-A-2"/>
      </g>
      <g id="B">
        <circle class="st9 seat" cx="675.3" cy="373.4" r="5.5" id="RISE4-B-1"/>
        <circle class="st9 seat" cx="675.3" cy="387.7" r="5.5" id="RISE4-B-2"/>
        <circle class="st9 seat" cx="675.3" cy="402" r="5.5" id="RISE4-B-3"/>
      </g>
      <g id="C">
        <circle class="st9 seat" cx="698.7" cy="359.1" r="5.5" id="RISE4-C-1"/>
        <circle class="st9 seat" cx="698.7" cy="373.4" r="5.5" id="RISE4-C-2"/>
        <circle class="st9 seat" cx="698.7" cy="387.7" r="5.5" id="RISE4-C-3"/>
        <circle class="st9 seat" cx="698.7" cy="402" r="5.5" id="RISE4-C-4"/>
      </g>
      <g id="D">
        <circle class="st9 seat" cx="722.1" cy="344.8" r="5.5" id="RISE4-D-1"/>
        <circle class="st9 seat" cx="722.1" cy="359.1" r="5.5" id="RISE4-D-2"/>
        <circle class="st9 seat" cx="722.1" cy="373.4" r="5.5" id="RISE4-D-3"/>
        <circle class="st9 seat" cx="722.1" cy="387.7" r="5.5" id="RISE4-D-4"/>
        <circle class="st9 seat" cx="722.1" cy="402" r="5.5" id="RISE4-D-5"/>
      </g>
      <g id="E">
        <circle class="st9 seat" cx="745.5" cy="330.5" r="5.5" id="RISE4-E-1"/>
        <circle class="st9 seat" cx="745.5" cy="344.8" r="5.5" id="RISE4-E-2"/>
        <circle class="st9 seat" cx="745.5" cy="359.1" r="5.5" id="RISE4-E-3"/>
        <circle class="st9 seat" cx="745.5" cy="373.4" r="5.5" id="RISE4-E-4"/>
        <circle class="st9 seat" cx="745.5" cy="387.7" r="5.5" id="RISE4-E-5"/>
        <circle class="st9 seat" cx="745.5" cy="402" r="5.5" id="RISE4-E-6"/>
      </g>
      <g id="F">
        <circle class="st9 seat" cx="768.9" cy="316.2" r="5.5" id="RISE4-F-1"/>
        <circle class="st9 seat" cx="768.9" cy="330.5" r="5.5" id="RISE4-F-2"/>
        <circle class="st9 seat" cx="768.9" cy="344.8" r="5.5" id="RISE4-F-3"/>
        <circle class="st9 seat" cx="768.9" cy="359.1" r="5.5" id="RISE4-F-4"/>
        <circle class="st9 seat" cx="768.9" cy="373.4" r="5.5" id="RISE4-F-5"/>
        <circle class="st9 seat" cx="768.9" cy="387.7" r="5.5" id="RISE4-F-6"/>
        <circle class="st9 seat" cx="768.9" cy="402" r="5.5" id="RISE4-F-7"/>
      </g>
      <g id="G">
        <circle class="st9 seat" cx="792.3" cy="301.9" r="5.5" id="RISE4-G-1"/>
        <circle class="st9 seat" cx="792.3" cy="316.2" r="5.5" id="RISE4-G-2"/>
        <circle class="st9 seat" cx="792.3" cy="330.5" r="5.5" id="RISE4-G-3"/>
        <circle class="st9 seat" cx="792.3" cy="344.8" r="5.5" id="RISE4-G-4"/>
        <circle class="st9 seat" cx="792.3" cy="359.1" r="5.5" id="RISE4-G-5"/>
        <circle class="st9 seat" cx="792.3" cy="373.4" r="5.5" id="RISE4-G-6"/>
        <circle class="st9 seat" cx="792.3" cy="387.7" r="5.5" id="RISE4-G-7"/>
        <circle class="st9 seat" cx="792.3" cy="402" r="5.5" id="RISE4-G-8"/>
      </g>
    </g>
    <g id="LOGE1">
      <g id="A">
        <circle class="st9 seat" cx="249.2" cy="203.5" r="5.5" id="LOGE1-A-1"/>
        <circle class="st9 seat" cx="259.4" cy="193.5" r="5.5" id="LOGE1-A-2"/>
        <circle class="st9 seat" cx="269.5" cy="183.4" r="5.5" id="LOGE1-A-3"/>
        <circle class="st9 seat" cx="279.7" cy="173.3" r="5.5" id="LOGE1-A-4"/>
        <circle class="st9 seat" cx="289.8" cy="163.2" r="5.5" id="LOGE1-A-5"/>
        <circle class="st9 seat" cx="300" cy="153.2" r="5.5" id="LOGE1-A-6"/>
      </g>
      <g id="B">
        <circle class="st9 seat" cx="242.9" cy="176.9" r="5.5" id="LOGE1-B-1"/>
        <circle class="st9 seat" cx="253" cy="166.8" r="5.5" id="LOGE1-B-2"/>
        <circle class="st9 seat" cx="263.2" cy="156.7" r="5.5" id="LOGE1-B-3"/>
        <circle class="st9 seat" cx="273.3" cy="146.6" r="5.5" id="LOGE1-B-4"/>
        <circle class="st9 seat" cx="283.5" cy="136.6" r="5.5" id="LOGE1-B-5"/>
      </g>
      <g id="C">
        <circle class="st9 seat" cx="236.5" cy="150.2" r="5.5" id="LOGE1-C-1"/>
        <circle class="st9 seat" cx="246.7" cy="140.1" r="5.5" id="LOGE1-C-2"/>
        <circle class="st9 seat" cx="256.8" cy="130" r="5.5" id="LOGE1-C-3"/>
        <circle class="st9 seat" cx="267" cy="120" r="5.5" id="LOGE1-C-4"/>
      </g>
    </g>
    <g id="LOGE2">
      <g id="A">
        <circle class="st9 seat" cx="332.1" cy="125.4" r="5.5" id="LOGE2-A-1"/>
        <circle class="st9 seat" cx="346.8" cy="113.1" r="5.5" id="LOGE2-A-2"/>
        <circle class="st9 seat" cx="361.7" cy="103.1" r="5.5" id="LOGE2-A-3"/>
        <circle class="st9 seat" cx="383.1" cy="99.6" r="5.5" id="LOGE2-A-4"/>
        <circle class="st9 seat" cx="396.9" cy="99.6" r="5.5" id="LOGE2-A-5"/>
        <circle class="st9 seat" cx="411.2" cy="99.6" r="5.5" id="LOGE2-A-6"/>
        <circle class="st9 seat" cx="425.5" cy="99.6" r="5.5" id="LOGE2-A-7"/>
        <circle class="st9 seat" cx="439.8" cy="99.6" r="5.5" id="LOGE2-A-8"/>
        <circle class="st9 seat" cx="454.1" cy="99.6" r="5.5" id="LOGE2-A-9"/>
        <circle class="st9 seat" cx="468.4" cy="99.6" r="5.5" id="LOGE2-A-10"/>
      </g>
      <g id="B">
        <circle class="st9 seat" cx="314.2" cy="106.6" r="5.5" id="LOGE2-B-1"/>
        <circle class="st9 seat" cx="324.8" cy="97.8" r="5.5" id="LOGE2-B-2"/>
        <circle class="st9 seat" cx="335.8" cy="88.6" r="5.5" id="LOGE2-B-3"/>
        <circle class="st9 seat" cx="350.7" cy="77.6" r="5.5" id="LOGE2-B-4"/>
        <circle class="st9 seat" cx="368.3" cy="76.2" r="5.5" id="LOGE2-B-5"/>
        <circle class="st9 seat" cx="382.6" cy="76.2" r="5.5" id="LOGE2-B-6"/>
        <circle class="st9 seat" cx="396.9" cy="76.2" r="5.5" id="LOGE2-B-7"/>
        <circle class="st9 seat" cx="411.2" cy="76.2" r="5.5" id="LOGE2-B-8"/>
        <circle class="st9 seat" cx="425.5" cy="76.2" r="5.5" id="LOGE2-B-9"/>
        <circle class="st9 seat" cx="439.8" cy="76.2" r="5.5" id="LOGE2-B-10"/>
        <circle class="st9 seat" cx="454.1" cy="76.2" r="5.5" id="LOGE2-B-11"/>
        <circle class="st9 seat" cx="468.4" cy="76.2" r="5.5" id="LOGE2-B-12"/>
      </g>
      <g id="C">
        <circle class="st9 seat" cx="293.9" cy="88.3" r="5.5" id="LOGE2-C-1"/>
        <circle class="st9 seat" cx="304.5" cy="79.4" r="5.5" id="LOGE2-C-2"/>
        <circle class="st9 seat" cx="315.5" cy="70.2" r="5.5" id="LOGE2-C-3"/>
        <circle class="st9 seat" cx="326.6" cy="60.6" r="5.5" id="LOGE2-C-4"/>
        <circle class="st9 seat" cx="338.6" cy="53.8" r="5.5" id="LOGE2-C-5"/>
        <circle class="st9 seat" cx="353" cy="52.8" r="5.5" id="LOGE2-C-6"/>
        <circle class="st9 seat" cx="368.6" cy="52.8" r="5.5" id="LOGE2-C-7"/>
        <circle class="st9 seat" cx="382.9" cy="52.8" r="5.5" id="LOGE2-C-8"/>
        <circle class="st9 seat" cx="397.2" cy="52.8" r="5.5" id="LOGE2-C-9"/>
        <circle class="st9 seat" cx="411.5" cy="52.8" r="5.5" id="LOGE2-C-10"/>
        <circle class="st9 seat" cx="425.5" cy="52.8" r="5.5" id="LOGE2-C-11"/>
        <circle class="st9 seat" cx="439.8" cy="52.8" r="5.5" id="LOGE2-C-12"/>
        <circle class="st9 seat" cx="454.1" cy="52.8" r="5.5" id="LOGE2-C-13"/>
        <circle class="st9 seat" cx="468.4" cy="52.8" r="5.5" id="LOGE2-C-14"/>
      </g>
    </g>
    <g id="LOGE3">
      <g id="A">
        <circle class="st9 seat" cx="523.6" cy="99.3" r="5.5" id="LOGE3-A-1"/>
        <circle class="st9 seat" cx="537.9" cy="99.3" r="5.5" id="LOGE3-A-2"/>
        <circle class="st9 seat" cx="552.2" cy="99.3" r="5.5" id="LOGE3-A-3"/>
        <circle class="st9 seat" cx="566.5" cy="99.3" r="5.5" id="LOGE3-A-4"/>
        <circle class="st9 seat" cx="580.8" cy="99.3" r="5.5" id="LOGE3-A-5"/>
        <circle class="st9 seat" cx="595.1" cy="99.3" r="5.5" id="LOGE3-A-6"/>
        <circle class="st9 seat" cx="608.9" cy="99.3" r="5.5" id="LOGE3-A-7"/>
        <circle class="st9 seat" cx="630.3" cy="102.8" r="5.5" id="LOGE3-A-8"/>
        <circle class="st9 seat" cx="645.2" cy="112.8" r="5.5" id="LOGE3-A-9"/>
        <circle class="st9 seat" cx="659.8" cy="125.1" r="5.5" id="LOGE3-A-10"/>
      </g>
      <g id="B">
        <circle class="st9 seat" cx="523.6" cy="75.9" r="5.5" id="LOGE3-B-1"/>
        <circle class="st9 seat" cx="537.9" cy="75.9" r="5.5" id="LOGE3-B-2"/>
        <circle class="st9 seat" cx="552.2" cy="75.9" r="5.5" id="LOGE3-B-3"/>
        <circle class="st9 seat" cx="566.5" cy="75.9" r="5.5" id="LOGE3-B-4"/>
        <circle class="st9 seat" cx="580.8" cy="75.9" r="5.5" id="LOGE3-B-5"/>
        <circle class="st9 seat" cx="595.1" cy="75.9" r="5.5" id="LOGE3-B-6"/>
        <circle class="st9 seat" cx="609.4" cy="75.9" r="5.5" id="LOGE3-B-7"/>
        <circle class="st9 seat" cx="623.7" cy="75.9" r="5.5" id="LOGE3-B-8"/>
        <circle class="st9 seat" cx="641.3" cy="77.3" r="5.5" id="LOGE3-B-9"/>
        <circle class="st9 seat" cx="656.2" cy="88.3" r="5.5" id="LOGE3-B-10"/>
        <circle class="st9 seat" cx="667.1" cy="97.5" r="5.5" id="LOGE3-B-11"/>
        <circle class="st9 seat" cx="677.7" cy="106.3" r="5.5" id="LOGE3-B-12"/>
      </g>
      <g id="C">
        <circle class="st9 seat" cx="523.6" cy="52.5" r="5.5" id="LOGE3-C-1"/>
        <circle class="st9 seat" cx="537.9" cy="52.5" r="5.5" id="LOGE3-C-2"/>
        <circle class="st9 seat" cx="552.2" cy="52.5" r="5.5" id="LOGE3-C-3"/>
        <circle class="st9 seat" cx="566.5" cy="52.5" r="5.5" id="LOGE3-C-4"/>
        <circle class="st9 seat" cx="580.4" cy="52.5" r="5.5" id="LOGE3-C-5"/>
        <circle class="st9 seat" cx="594.7" cy="52.5" r="5.5" id="LOGE3-C-6"/>
        <circle class="st9 seat" cx="609" cy="52.5" r="5.5" id="LOGE3-C-7"/>
        <circle class="st9 seat" cx="623.3" cy="52.5" r="5.5" id="LOGE3-C-8"/>
        <circle class="st9 seat" cx="638.9" cy="52.5" r="5.5" id="LOGE3-C-9"/>
        <circle class="st9 seat" cx="653.3" cy="53.5" r="5.5" id="LOGE3-C-10"/>
        <circle class="st9 seat" cx="665.3" cy="60.3" r="5.5" id="LOGE3-C-11"/>
        <circle class="st9 seat" cx="676.5" cy="69.9" r="5.5" id="LOGE3-C-12"/>
        <circle class="st9 seat" cx="687.5" cy="79.1" r="5.5" id="LOGE3-C-13"/>
        <circle class="st9 seat" cx="698" cy="88" r="5.5" id="LOGE3-C-14"/>
      </g>
    </g>
    <g id="LOGE4">
      <g id="A">
        <circle class="st9 seat" cx="693.2" cy="153.4" r="5.5" id="LOGE4-A-1"/>
        <circle class="st9 seat" cx="703.3" cy="163.5" r="5.5" id="LOGE4-A-2"/>
        <circle class="st9 seat" cx="713.5" cy="173.6" r="5.5" id="LOGE4-A-3"/>
        <circle class="st9 seat" cx="723.6" cy="183.6" r="5.5" id="LOGE4-A-4"/>
        <circle class="st9 seat" cx="733.8" cy="193.7" r="5.5" id="LOGE4-A-5"/>
        <circle class="st9 seat" cx="743.9" cy="203.8" r="5.5" id="LOGE4-A-6"/>
      </g>
      <g id="B">
        <circle class="st9 seat" cx="709.7" cy="136.8" r="5.5" id="LOGE4-B-1"/>
        <circle class="st9 seat" cx="719.8" cy="146.9" r="5.5" id="LOGE4-B-2"/>
        <circle class="st9 seat" cx="730" cy="157" r="5.5" id="LOGE4-B-3"/>
        <circle class="st9 seat" cx="740.1" cy="167" r="5.5" id="LOGE4-B-4"/>
        <circle class="st9 seat" cx="750.3" cy="177.1" r="5.5" id="LOGE4-B-5"/>
      </g>
      <g id="C">
        <circle class="st9 seat" cx="726.2" cy="120.2" r="5.5" id="LOGE4-C-1"/>
        <circle class="st9 seat" cx="736.3" cy="130.3" r="5.5" id="LOGE4-C-2"/>
        <circle class="st9 seat" cx="746.5" cy="140.4" r="5.5" id="LOGE4-C-3"/>
        <circle class="st9 seat" cx="756.6" cy="150.4" r="5.5" id="LOGE4-C-4"/>
      </g>
    </g>
  </g>
</svg>